# AST/ASF file generated using VICON BodyLanguage
# -----------------------------------------------
:version 1.10
:name VICON
:units
  mass 1.0
  length 0.45
  angle deg
:documentation
   .ast/.asf automatically generated from VICON data using
   VICON BodyBuilder and BodyLanguage model FoxedUp or BRILLIANT.MOD
:root
   order TX TY TZ RX RY RZ
   axis XYZ
   position 0 0 0  
   orientation 0 0 0 
:bonedata
  begin
     id 1 
     name lhipjoint
     direction 0.645893 -0.654526 0.392961 
     length 2.38111 
     axis 0 0 0  XYZ
  end
  begin
     id 2 
     name lfemur
     direction 0.34202 -0.939693 0  
     length 6.6822  
     axis 0 0 20  XYZ
    dof rx ry rz
    limits (-160.0 20.0)
           (-70.0 70.0)
           (-60.0 70.0)
  end
  begin
     id 3 
     name ltibia
     direction 0.34202 -0.939693 0   
     length 6.93904   
     axis 0 0 20   XYZ
    dof rx
    limits (-10.0 170.0)
  end
  begin
     id 4 
     name lfoot
     direction 0.0694967 -0.190941 0.979138   
     length 2.13616   
     axis -90 7.62852e-016 20   XYZ
    dof rx rz
    limits (-45.0 90.0)
           (-70.0 20.0)
  end
  begin
     id 5 
     name ltoes
     direction 1.535e-011 -4.2202e-011 1   
     length 1.07536   
     axis -90 7.62852e-016 20   XYZ
    dof rx
    limits (-90.0 20.0)
  end
  begin
     id 6 
     name rhipjoint
     direction -0.700219 -0.612087 0.367481   
     length 2.54621  
     axis 0 0 0  XYZ 
  end
  begin
     id 7 
     name rfemur
     direction -0.34202 -0.939693 0   
     length 6.55353   
     axis 0 0 -20   XYZ
    dof rx ry rz
    limits (-160.0 20.0)
           (-70.0 70.0)
           (-70.0 60.0)
  end
  begin
     id 8 
     name rtibia
     direction -0.34202 -0.939693 0   
     length 6.8736   
     axis 0 0 -20   XYZ
    dof rx
    limits (-10.0 170.0)
 end
 begin
     id 9 
     name rfoot
     direction -0.0679995 -0.186827 0.980037   
     length 2.1218  
     axis -90 -7.62852e-016 -20   XYZ
    dof rx rz
    limits (-45.0 90.0)
           (-20.0 70.0)
  end
  begin
     id 10 
     name rtoes
     direction -1.53589e-011 -4.21772e-011 1   
     length 1.06864   
     axis -90 -7.62852e-016 -20   XYZ
    dof rx
    limits (-90.0 20.0)
  end
  begin
     id 11 
     name lowerback
     direction -0.0416607 0.996347 -0.0745409   
     length 2.12205   
     axis 0 0 0   XYZ
    dof rx ry rz
    limits (-20.0 45.0)
           (-30.0 30.0)
           (-30.0 30.0)
  end
  begin
     id 12 
     name upperback
     direction -0.000153993 0.999276 -0.0380568   
     length 2.12759   
     axis 0 0 0   XYZ
    dof rx ry rz
    limits (-20.0 45.0)
           (-30.0 30.0)
           (-30.0 30.0)
  end
  begin
     id 13 
     name thorax
     direction 0.0187671 0.999821 -0.00241421   
     length 2.13704   
     axis 0 0 0   XYZ
    dof rx ry rz
    limits (-20.0 45.0)
           (-30.0 30.0)
           (-30.0 30.0)
  end
  begin
     id 14 
     name lowerneck
     direction 0.0268157 0.964865 0.261374   
     length 1.65253   
     axis 0 0 0   XYZ
    dof rx ry rz
    limits (-20.0 45.0)
           (-30.0 30.0)
           (-30.0 30.0)
  end
  begin
     id 15 
     name upperneck
     direction 0.00263774 0.939908 -0.341418   
     length 1.72375   
     axis 0 0 0   XYZ
    dof rx ry rz
    limits (-20.0 45.0)
           (-30.0 30.0)
           (-30.0 30.0)
  end
  begin
     id 16
     name head
     direction -0.00526001 0.989001 -0.147818  
     length 1.74878  
     axis 0 0 0   XYZ
    dof rx ry rz
    limits (-20.0 45.0)
           (-30.0 30.0)
           (-30.0 30.0)
  end
  begin
     id 17 
     name lclavicle
     direction 0.881214 0.461162 -0.103884  
     length 3.25108  
     axis 0 0 0   XYZ
    dof ry rz
    limits (-20.0 10.0)
           (0.0 20.0)
  end
  begin
     id 18 
     name lhumerus
     direction 1 -4.4899e-011 3.38092e-027   
     length 4.87408   
     axis 180 -30 -90   XYZ
    dof rx ry rz
    limits (-60.0 90.0)
           (-90.0 90.0)
           (-90.0 90.0)
  end
  begin
     id 19
     name lradius
     direction 1 -4.48931e-011 9.96288e-027   
     length 2.76729   
     axis 180 -30 -90   XYZ
    dof rx
    limits (-10.0 170.0)
  end
  begin
     id 20
     name lwrist
     direction 1 -4.4896e-011 1.50617e-026   
     length 1.38364   
     axis -9.31234e-015 90 90   XYZ
    dof ry
    limits (-180.0 0.0)
 end
  begin
     id 21 
     name lhand
     direction 1 -4.49038e-011 3.01286e-026   
     length 0.98922   
     axis -1.92217e-014 90 90   XYZ
    dof rx rz
    limits (-90.0 90.0)
           (-45.0 45.0)
  end
  begin
     id 22 
     name lfingers
     direction 1 -4.49051e-011 6.02588e-026   
     length 0.797535   
     axis -3.84436e-014 90 90   XYZ
    dof rx
    limits (0.0 90.0)
  end
  begin
     id 23
     name lthumb
     direction 0.707107 -6.34901e-011 0.707107   
     length 1.14511   
     axis -90 45 2.19363e-014   XYZ
    dof rx rz
    limits (-45.0 45.0)
           (-45.0 45.0)
  end
  begin
     id 24 
     name rclavicle
     direction -0.893894 0.441652 -0.0767889   
     length 3.29361  
     axis 0 0 0   XYZ 
    dof ry rz
    limits (-10.0 20.0)
           (-20.0 0.0)
  end
  begin
     id 25 
     name rhumerus
     direction -1 -4.48945e-011 8.0491e-028  
     length 4.71404   
     axis 180 30 90   XYZ
    dof rx ry rz
    limits (-90.0 60.0)
           (-90.0 90.0)
           (-90.0 90.0)
  end
  begin
     id 26 
     name rradius
     direction -1 -4.48986e-011 9.27795e-027   
     length 2.83468   
     axis 180 30 90   XYZ
    dof rx
    limits (-10.0 170.0)
  end
  begin
     id 27 
     name rwrist
     direction -1 -4.49029e-011 1.5064e-026   
     length 1.41734   
     axis -9.31234e-015 -90 -90   XYZ
    dof ry
    limits (-180.0 0.0)
  end
  begin
     id 28
     name rhand
     direction -1 -4.48857e-011 3.01165e-026   
     length 0.868195   
     axis -1.92217e-014 -90 -90   XYZ
    dof rx rz
    limits (-90.0 90.0)
           (-45.0 45.0)
  end
  begin
     id 29
     name rfingers
     direction -1 -4.49048e-011 6.02585e-026   
     length 0.699961   
     axis -3.84436e-014 -90 -90   XYZ
    dof rx
    limits (0.0 90.0)
  end
  begin
     id 30
     name rthumb
     direction -0.707107 -6.34854e-011 0.707107   
     length 1.00501   
     axis -90 -45 -2.19363e-014   XYZ
    dof rx rz
    limits (-45.0 45.0)
           (-45.0 45.0)
  end
:hierarchy
  begin
    root lhipjoint rhipjoint lowerback
    lhipjoint lfemur
    lfemur ltibia
    ltibia lfoot
    lfoot ltoes
    rhipjoint rfemur
    rfemur rtibia
    rtibia rfoot
    rfoot rtoes
    lowerback upperback
    upperback thorax
    thorax lowerneck lclavicle rclavicle
    lowerneck upperneck
    upperneck head
    lclavicle lhumerus
    lhumerus lradius
    lradius lwrist
    lwrist lhand lthumb
    lhand lfingers
    rclavicle rhumerus
    rhumerus rradius
    rradius rwrist
    rwrist rhand rthumb
    rhand rfingers
  end

#!OML:ASF H:\ManfredObstacles\Project 1\Capture day 2\Session 1\male.ASF
:FULLY-SPECIFIED
:DEGREES
144
root 6.11033 16.5732 -14.5979 -168.253 -45.9355 181.183
lowerback -4.38867 -6.36724 -7.06272
upperback -0.564599 -8.1924 1.04156
thorax 2.99764 -4.18704 4.35144
lowerneck -29.7296 8.72905 9.0985
upperneck 41.7223 8.74359 -4.95272
head 24.6457 3.167 -2.31157
rclavicle 5.93372e-014 -2.78299e-014
rhumerus -74.5938 -4.13786 -79.3247
rradius 91.0315
rwrist 6.88367
rhand -7.49387 0.650416
rfingers 7.12502
rthumb 18.3958 -28.4998
lclavicle 5.93372e-014 -2.78299e-014
lhumerus -48.796 -31.9777 99.3104
lradius 103.417
lwrist -21.5793
lhand -14.3474 4.01218
lfingers 7.12502
lthumb 11.7941 33.6601
rfemur -41.3908 4.11759 15.4884
rtibia 32.1623
rfoot 11.2892 -7.86271
rtoes -27.3524
lfemur 7.12141 -3.66749 -30.9149
ltibia 25.2839
lfoot 38.0343 -2.91844
ltoes 12.7849
145
root 5.9213 16.507 -14.8233 -168.399 -46.101 180.95
lowerback -4.33899 -6.23108 -7.13032
upperback -0.497562 -8.00613 0.932755
thorax 3.00867 -4.09581 4.29767
lowerneck -29.7366 8.62858 8.96389
upperneck 41.7632 8.66882 -4.96325
head 24.6605 3.11635 -2.31849
rclavicle 3.4191e-014 5.64548e-014
rhumerus -74.4201 -3.83517 -79.5438
rradius 91.1025
rwrist 7.24167
rhand -7.25584 0.75713
rfingers 7.12502
rthumb 18.6248 -28.3713
lclavicle 3.4191e-014 5.64548e-014
lhumerus -49.2102 -31.2982 99.3231
lradius 103.438
lwrist -21.6178
lhand -14.3003 4.11242
lfingers 7.12502
lthumb 11.8395 33.7577
rfemur -40.5623 3.88427 15.9541
rtibia 32.6407
rfoot 11.4488 -7.91685
rtoes -26.6619
lfemur 6.62003 -3.6589 -31.0146
ltibia 27.9026
lfoot 37.4139 -2.59869
ltoes 13.2765
146
root 5.73365 16.4279 -15.0467 -168.57 -46.2455 180.736
lowerback -4.27188 -6.06736 -7.185
upperback -0.42527 -7.7849 0.818787
thorax 3.00865 -3.98686 4.23668
lowerneck -29.7536 8.51665 8.83429
upperneck 41.8106 8.56845 -4.96806
head 24.682 3.05879 -2.33097
rclavicle 1.2921e-014 2.14687e-014
rhumerus -74.1323 -3.49721 -79.7806
rradius 91.0826
rwrist 7.67093
rhand -6.95866 0.849215
rfingers 7.12502
rthumb 18.9106 -28.2515
lclavicle 1.2921e-014 2.14687e-014
lhumerus -49.6247 -30.5748 99.3327
lradius 103.394
lwrist -21.6991
lhand -14.2734 4.27789
lfingers 7.12502
lthumb 11.8655 33.9217
rfemur -39.7242 3.56988 16.4761
rtibia 33.4
rfoot 11.0017 -7.73427
rtoes -25.5619
lfemur 6.02569 -3.57184 -31.0787
ltibia 30.6898
lfoot 36.5222 -2.10609
ltoes 13.5367
147
root 5.54796 16.3374 -15.2686 -168.772 -46.3674 180.554
lowerback -4.19117 -5.87584 -7.22655
upperback -0.349032 -7.52828 0.704294
thorax 2.99917 -3.86003 4.17249
lowerneck -29.7831 8.37348 8.64439
upperneck 41.8435 8.43385 -4.92631
head 24.6733 2.98672 -2.31303
rclavicle 7.55382e-014 -1.19271e-014
rhumerus -73.7246 -3.10395 -80.0579
rradius 90.9614
rwrist 8.07511
rhand -6.62914 0.89015
rfingers 7.12502
rthumb 19.2275 -28.1794
lclavicle 7.55382e-014 -1.19271e-014
lhumerus -50.0383 -29.8246 99.3398
lradius 103.285
lwrist -21.7996
lhand -14.2536 4.51146
lfingers 7.12502
lthumb 11.8846 34.1542
rfemur -38.8723 3.24525 17.0188
rtibia 34.4271
rfoot 9.75176 -7.50856
rtoes -24.3226
lfemur 5.3408 -3.38922 -31.0885
ltibia 33.605
lfoot 35.4651 -1.56958
ltoes 13.4626
148
root 5.36394 16.2369 -15.4877 -169.007 -46.4762 180.418
lowerback -4.09507 -5.66242 -7.23731
upperback -0.270627 -7.24529 0.59734
thorax 2.97766 -3.71947 4.10277
lowerneck -29.8219 8.21709 8.44303
upperneck 41.8674 8.27942 -4.86946
head 24.6533 2.90901 -2.28868
rclavicle -3.85642e-014 -2.14687e-014
rhumerus -73.1928 -2.64846 -80.3896
rradius 90.7449
rwrist 8.38007
rhand -6.36227 0.883652
rfingers 7.12502
rthumb 19.4841 -28.1601
lclavicle -3.85642e-014 -2.14687e-014
lhumerus -50.4392 -29.0332 99.3407
lradius 103.11
lwrist -21.9103
lhand -14.2253 4.7963
lfingers 7.12502
lthumb 11.9118 34.4374
rfemur -38.0016 2.95201 17.5552
rtibia 35.6887
rfoot 7.63215 -7.50658
rtoes -23.148
lfemur 4.56265 -3.1309 -31.0338
ltibia 36.6265
lfoot 34.3466 -1.01534
ltoes 13.1248
149
root 5.18202 16.1292 -15.7044 -169.308 -46.5782 180.379
lowerback -3.97709 -5.43152 -7.19159
upperback -0.187898 -6.94334 0.509528
thorax 2.94248 -3.56851 4.02479
lowerneck -29.9017 8.04293 8.18908
upperneck 41.8919 8.10422 -4.76409
head 24.6345 2.82211 -2.23092
rclavicle 6.77856e-014 5.08889e-014
rhumerus -72.5359 -2.11173 -80.8032
rradius 90.4339
rwrist 8.49441
rhand -6.21288 0.818273
rfingers 7.12502
rthumb 19.6277 -28.2109
lclavicle 6.77856e-014 5.08889e-014
lhumerus -50.8313 -28.203 99.3195
lradius 102.885
lwrist -22.0368
lhand -14.195 5.14244
lfingers 7.12502
lthumb 11.9411 34.7819
rfemur -37.1159 2.80676 18.0691
rtibia 37.125
rfoot 4.84752 -7.96407
rtoes -22.2777
lfemur 3.68257 -2.80614 -30.8703
ltibia 39.7467
lfoot 33.2469 -0.479763
ltoes 12.6387
150
root 5.00251 16.016 -15.918 -169.679 -46.6613 180.447
lowerback -3.82827 -5.17766 -7.0843
upperback -0.106513 -6.61609 0.43749
thorax 2.88154 -3.4034 3.93349
lowerneck -29.9745 7.86422 7.96576
upperneck 41.8923 7.91421 -4.67112
head 24.5939 2.73584 -2.18851
rclavicle 1.46306e-013 -2.38542e-014
rhumerus -71.7567 -1.50431 -81.3026
rradius 90.0284
rwrist 8.41459
rhand -6.21089 0.717413
rfingers 7.12502
rthumb 19.6296 -28.3116
lclavicle 1.46306e-013 -2.38542e-014
lhumerus -51.218 -27.3465 99.2794
lradius 102.591
lwrist -22.1314
lhand -14.1814 5.49984
lfingers 7.12502
lthumb 11.9542 35.1385
rfemur -36.2355 2.863 18.5532
rtibia 38.6636
rfoot 1.80068 -8.86585
rtoes -21.7622
lfemur 2.69072 -2.42349 -30.5992
ltibia 42.9628
lfoot 32.1951 0.011686
ltoes 12.0022
151
root 4.82531 15.9002 -16.1281 -170.142 -46.7379 180.646
lowerback -3.6341 -4.90321 -6.89867
upperback -0.0167748 -6.26775 0.389033
thorax 2.79727 -3.22626 3.82714
lowerneck -30.0656 7.67072 7.7296
upperneck 41.8568 7.7072 -4.56208
head 24.5205 2.64658 -2.13561
rclavicle 1.98785e-016 2.94201e-014
rhumerus -70.8421 -0.838658 -81.8691
rradius 89.5365
rwrist 8.19176
rhand -6.30392 0.588096
rfingers 7.12502
rthumb 19.5402 -28.45
lclavicle 1.98785e-016 2.94201e-014
lhumerus -51.5503 -26.4649 99.2005
lradius 102.19
lwrist -22.2099
lhand -14.1901 5.84311
lfingers 7.12502
lthumb 11.9458 35.4823
rfemur -35.362 3.1183 19.0355
rtibia 40.2258
rfoot -1.18779 -10.1053
rtoes -21.7741
lfemur 1.58805 -2.0015 -30.2022
ltibia 46.2731
lfoot 31.1833 0.491992
ltoes 11.2991
152
root 4.65005 15.7839 -16.3342 -170.714 -46.8111 180.976
lowerback -3.37445 -4.605 -6.62976
upperback 0.0864489 -5.89489 0.361524
thorax 2.68363 -3.03528 3.70084
lowerneck -30.1574 7.46695 7.52806
upperneck 41.7557 7.48616 -4.4755
head 24.3902 2.56026 -2.10092
rclavicle -7.22582e-014 -1.74931e-014
rhumerus -69.7904 -0.138172 -82.4808
rradius 88.9706
rwrist 7.91881
rhand -6.44149 0.430807
rfingers 7.12502
rthumb 19.4079 -28.6206
lclavicle -7.22582e-014 -1.74931e-014
lhumerus -51.8194 -25.5795 99.0902
lradius 101.652
lwrist -22.2426
lhand -14.2389 6.15003
lfingers 7.12502
lthumb 11.8988 35.7919
rfemur -34.4915 3.54953 19.5364
rtibia 41.7461
rfoot -3.83109 -11.4806
rtoes -21.7263
lfemur 0.390041 -1.55423 -29.6807
ltibia 49.6712
lfoot 30.1832 0.993049
ltoes 10.6326
153
root 4.47651 15.6688 -16.5355 -171.398 -46.8852 181.432
lowerback -3.03837 -4.28608 -6.27737
upperback 0.213357 -5.50096 0.355609
thorax 2.54682 -2.83267 3.55355
lowerneck -30.2556 7.25355 7.38062
upperneck 41.5614 7.25752 -4.43817
head 24.187 2.48006 -2.09961
rclavicle -1.72943e-014 5.1684e-014
rhumerus -68.571 0.596295 -83.1091
rradius 88.3368
rwrist 7.72067
rhand -6.55829 0.265374
rfingers 7.12502
rthumb 19.2956 -28.7973
lclavicle -1.72943e-014 5.1684e-014
lhumerus -51.9847 -24.6923 98.9373
lradius 100.952
lwrist -22.2462
lhand -14.2884 6.43448
lfingers 7.12502
lthumb 11.851 36.0791
rfemur -33.6074 4.07598 20.088
rtibia 43.1724
rfoot -6.05219 -12.8419
rtoes -21.8616
lfemur -0.903593 -1.09043 -29.0479
ltibia 53.1511
lfoot 29.1736 1.4926
ltoes 10.0403
